<?xml version="1.0" encoding="UTF-8" standalone="no"?>
<svg width="30px" height="30px" viewBox="0 0 30 30" version="1.1" xmlns="http://www.w3.org/2000/svg" xmlns:xlink="http://www.w3.org/1999/xlink">
    <!-- Generator: Sketch 3.6.1 (26313) - http://www.bohemiancoding.com/sketch -->
    <title>icon-itunes</title>
    <desc>Created with Sketch.</desc>
    <defs></defs>
    <g id="Page-1" stroke="none" stroke-width="1" fill="none" fill-rule="evenodd">
        <g id="Desktop-Copy-2" transform="translate(-1080.000000, -737.000000)" fill="#FFFFFF">
            <g id="Group-3" transform="translate(284.000000, 395.000000)">
                <g id="Rectangle-1-+-Fill-5-+-iTunes" transform="translate(782.000000, 328.000000)">
                    <g id="Group-4" transform="translate(14.000000, 14.000000)">
                        <path d="M22.3817689,15.4710165 C22.3507635,11.9938133 25.2032611,10.3021426 25.3336977,10.2223061 C23.718209,7.84555196 21.2142549,7.5208116 20.3343427,7.49599756 C18.2313207,7.27267113 16.1913786,8.76582944 15.1200882,8.76582944 C14.0274148,8.76582944 12.3766441,7.51757499 10.5997134,7.55425662 C8.31279719,7.58985939 6.17128565,8.92658131 4.9973567,11.0023303 C2.57465818,15.2347436 4.38152513,21.4544384 6.70265421,24.8755403 C7.86375333,26.5510279 9.22050727,28.4217912 10.9952997,28.3559801 C12.7326717,28.2826168 13.381647,27.2371902 15.4793233,27.2371902 C17.5566857,27.2371902 18.1661024,28.3559801 19.977246,28.3139041 C21.8418471,28.2826168 23.0157761,26.6308644 24.1362474,24.9402726 C25.4780332,23.0188022 26.0168858,21.1275403 26.0382689,21.0304419 C25.9944337,21.0164165 22.4170509,19.6386975 22.3817689,15.4710165 Z M18.6242325,5.411506 C19.5576023,4.23229933 20.1969552,2.62801725 20.019476,1 C18.6669986,1.06041681 16.9756001,1.94293378 16.0026717,3.0973264 C15.1409352,4.11362345 14.3711457,5.77940121 14.570008,7.34592279 C16.089273,7.46028318 17.6491659,6.57237184 18.6242325,5.411506 Z" id="Fill-5"></path>
                    </g>
                </g>
            </g>
        </g>
    </g>
</svg>