<?xml version="1.0" encoding="UTF-8" standalone="no"?>
<svg width="30px" height="30px" viewBox="0 0 30 30" version="1.1" xmlns="http://www.w3.org/2000/svg" xmlns:xlink="http://www.w3.org/1999/xlink">
    <!-- Generator: Sketch 3.6.1 (26313) - http://www.bohemiancoding.com/sketch -->
    <title>icon-pocket-casts</title>
    <desc>Created with Sketch.</desc>
    <defs></defs>
    <g id="Page-1" stroke="none" stroke-width="1" fill="none" fill-rule="evenodd">
        <g id="Desktop-Copy-2" transform="translate(-1080.000000, -879.000000)" fill="#FFFFFF">
            <g id="Group-3" transform="translate(284.000000, 395.000000)">
                <g id="Rectangle-1-+-Fill-5-+-iTunes" transform="translate(782.000000, 469.000000)">
                    <g id="Group-5" transform="translate(14.000000, 15.000000)">
                        <path d="M14.9999528,20.7332626 C11.9167539,20.7332626 9.41728959,18.2337842 9.41728959,15.1505679 C9.41728959,12.0673516 11.9167539,9.56787322 14.9999528,9.56787322 C18.0831517,9.56787322 20.582616,12.0673516 20.582616,15.1505679 L23.4209212,15.1505679 C23.4209212,10.4997697 19.6507248,6.72955209 14.9999528,6.72955209 C10.3491808,6.72955209 6.57898447,10.4997697 6.57898447,15.1505679 C6.57898447,19.8013661 10.3491808,23.5717416 14.9999528,23.5717416 L14.9999528,20.7332626 Z M14.9999528,25.3611503 C9.36092138,25.3611503 4.78941225,20.7897733 4.78941225,15.1505521 C4.78941225,9.5114889 9.36092138,4.94011189 14.9999528,4.94011189 C20.6389842,4.94011189 25.2104934,9.5114889 25.2104934,15.1505521 L28.9999528,15.1505521 C28.9999528,7.41859023 22.7318711,1.15063108 14.9999528,1.15063108 C7.26803451,1.15063108 0.999952809,7.41859023 0.999952809,15.1505521 C0.999952809,22.8826719 7.26803451,29.1506311 14.9999528,29.1506311 L14.9999528,25.3611503 Z" id="Fill-1"></path>
                    </g>
                </g>
            </g>
        </g>
    </g>
</svg>