<?xml version="1.0" encoding="UTF-8" standalone="no"?>
<svg width="30px" height="30px" viewBox="0 0 30 30" version="1.1" xmlns="http://www.w3.org/2000/svg" xmlns:xlink="http://www.w3.org/1999/xlink">
    <!-- Generator: Sketch 3.6.1 (26313) - http://www.bohemiancoding.com/sketch -->
    <title>icon-rss</title>
    <desc>Created with Sketch.</desc>
    <defs></defs>
    <g id="Page-1" stroke="none" stroke-width="1" fill="none" fill-rule="evenodd">
        <g id="Desktop-Copy-2" transform="translate(-1080.000000, -951.000000)" fill="#FFFFFF">
            <g id="Group-3" transform="translate(284.000000, 395.000000)">
                <g id="Rectangle-1-+-Fill-5-+-iTunes" transform="translate(782.000000, 413.000000)">
                    <g id="Group-6" transform="translate(14.000000, 143.000000)">
                        <path d="M6.28125,19.9375 C7.17969199,19.9375 7.95116865,20.2597624 8.59570312,20.9042969 C9.2402376,21.5488313 9.5625,22.320308 9.5625,23.21875 C9.5625,24.117192 9.2402376,24.8886687 8.59570312,25.5332031 C7.95116865,26.1777376 7.17969199,26.5 6.28125,26.5 C5.38280801,26.5 4.61133135,26.1777376 3.96679688,25.5332031 C3.3222624,24.8886687 3,24.117192 3,23.21875 C3,22.320308 3.3222624,21.5488313 3.96679688,20.9042969 C4.61133135,20.2597624 5.38280801,19.9375 6.28125,19.9375 L6.28125,19.9375 Z M3,11.5 C7.10158301,11.5 10.6269384,12.9745946 13.5761719,15.9238281 C16.5254054,18.8730616 18,22.398417 18,26.5 L13.3125,26.5 C13.3125,23.3749844 12.3750094,20.8750094 10.5,19 C8.62499063,17.1249906 6.12501562,16.1875 3,16.1875 L3,11.5 Z M3,4 C9.21096855,4 14.5136499,6.19724365 18.9082031,10.5917969 C23.3027563,14.9863501 25.5,20.2890314 25.5,26.5 L20.8125,26.5 C20.8125,21.499975 19.0937672,17.2812672 15.65625,13.84375 C12.2187328,10.4062328 8.000025,8.6875 3,8.6875 L3,4 Z" id="Type-something"></path>
                    </g>
                </g>
            </g>
        </g>
    </g>
</svg>