<?xml version="1.0" encoding="UTF-8" standalone="no"?>
<svg width="30px" height="30px" viewBox="0 0 30 30" version="1.1" xmlns="http://www.w3.org/2000/svg" xmlns:xlink="http://www.w3.org/1999/xlink">
    <!-- Generator: Sketch 3.6.1 (26313) - http://www.bohemiancoding.com/sketch -->
    <title>icon-overcast</title>
    <desc>Created with Sketch.</desc>
    <defs></defs>
    <g id="Page-1" stroke="none" stroke-width="1" fill="none" fill-rule="evenodd">
        <g id="Desktop-Copy-2" transform="translate(-1080.000000, -808.000000)" fill="#FFFFFF">
            <g id="Group-3" transform="translate(284.000000, 395.000000)">
                <g id="Rectangle-1-+-Fill-5-+-iTunes" transform="translate(782.000000, 398.000000)">
                    <g id="Group-5" transform="translate(14.000000, 15.000000)">
                        <path d="M15,29 C7.26801198,29 1,22.731988 1,15 C1,7.26801198 7.26801198,1 15,1 C22.731988,1 29,7.26801198 29,15 C29,22.731988 22.731988,29 15,29 L15,29 Z M12.0265174,27.3881129 C12.7817121,26.8103421 13.5067318,26.1430238 14.1841085,25.3895318 C13.8378055,24.9932209 13.5049346,24.5753114 13.1870093,24.1367492 L11.8989122,27.356992 C11.9413527,27.3676178 11.9838878,27.3779284 12.0265174,27.3881129 L12.0265174,27.3881129 Z M14.9814283,24.4343055 C15.4182563,23.8708498 15.8294183,23.2683588 16.2100268,22.6293237 L15,19.6042251 L13.7751222,22.6664039 C14.1495192,23.2916286 14.5530821,23.881791 14.9814283,24.4343055 L14.9814283,24.4343055 Z M15.7136055,25.3160965 C16.412234,26.1024436 17.1623207,26.7972568 17.9450102,27.3950812 C17.9971938,27.3827211 18.0491881,27.3699827 18.1011193,27.356992 L16.7480687,23.974397 C16.4185717,24.4440486 16.07312,24.8917547 15.7136055,25.3160965 L15.7136055,25.3160965 Z M16.566735,27.641936 C15.9999685,27.2013243 15.4509223,26.7163172 14.9261863,26.1867255 C14.4190446,26.711493 13.8898628,27.1933155 13.3445688,27.6309317 C13.8864575,27.701277 14.4389406,27.7379158 15.0000315,27.7379158 C15.5305061,27.7379158 16.0532556,27.7049346 16.566735,27.641936 L16.566735,27.641936 Z M15,2.26208419 C7.96503232,2.26208419 2.26208419,7.96506385 2.26208419,15 C2.26208419,20.6268327 5.91076778,25.4009775 10.9710232,27.086962 L14.2422198,17.2733722 C13.2902727,16.9561722 12.603626,16.0585527 12.603626,15 C12.603626,13.6765253 13.6765253,12.603626 15,12.603626 C16.3234747,12.603626 17.396374,13.6765253 17.396374,15 C17.396374,16.0585527 16.7097273,16.9561722 15.7577802,17.2733722 L19.0289768,27.086962 C24.0892638,25.4009775 27.7379158,20.6268327 27.7379158,15 C27.7379158,7.96503232 22.0349677,2.26208419 15,2.26208419 L15,2.26208419 Z M22.0902097,22.0902097 L21.1983604,21.1983604 C22.7846445,19.6120448 23.7657891,17.4206212 23.7657891,15 C23.7657891,12.5793788 22.7846445,10.3879552 21.1983604,8.8016396 L22.0902097,7.90979032 C23.9047454,9.72432603 25.0270534,12.2310894 25.0270534,15 C25.0270534,17.7688791 23.9047454,20.275674 22.0902097,22.0902097 L22.0902097,22.0902097 Z M18.4557465,18.4557465 C19.3401545,17.5713385 19.8871512,16.3495507 19.8871512,15 C19.8871512,13.6504493 19.340123,12.4286615 18.4557465,11.5442535 L19.3476588,10.6523412 C20.4603185,11.7650008 21.1485102,13.3021283 21.1485102,15 C21.1485102,16.6978717 20.4603185,18.2349992 19.3476588,19.3476588 L18.4557465,18.4557465 L18.4557465,18.4557465 Z M10.6523412,19.3476588 C9.53968154,18.2349992 8.85148983,16.6978717 8.85148983,15 C8.85148983,13.3021283 9.53968154,11.7650008 10.6523412,10.6523412 L11.5442535,11.5442535 C10.659877,12.4286615 10.1128488,13.6504493 10.1128488,15 C10.1128488,16.3495507 10.659877,17.5713385 11.5442535,18.4557465 L10.6523412,19.3476588 L10.6523412,19.3476588 Z M7.90979032,22.0902097 C6.09525461,20.275674 4.97291502,17.7689106 4.97291502,15 C4.97291502,12.2311209 6.09522308,9.72435756 7.90979032,7.90979032 L8.8016396,8.8016396 C7.21535551,10.3879552 6.23421094,12.5794104 6.23421094,15 C6.23421094,17.4206212 7.21535551,19.6120448 8.8016396,21.1983604 L7.90979032,22.0902097 L7.90979032,22.0902097 Z" id="Shape"></path>
                    </g>
                </g>
            </g>
        </g>
    </g>
</svg>