<?xml version="1.0" encoding="UTF-8" standalone="no"?>
<svg width="404px" height="162px" viewBox="0 0 404 162" version="1.1" xmlns="http://www.w3.org/2000/svg" xmlns:xlink="http://www.w3.org/1999/xlink">
    <!-- Generator: Sketch 3.6.1 (26313) - http://www.bohemiancoding.com/sketch -->
    <title>Group 2</title>
    <desc>Created with Sketch.</desc>
    <defs></defs>
    <g id="Page-1" stroke="none" stroke-width="1" fill="none" fill-rule="evenodd">
        <g id="Desktop-Copy-2" transform="translate(-598.000000, -88.000000)">
            <g id="Group-2" transform="translate(598.000000, 88.000000)">
                <path d="M67.4407295,40.8403361 C68.4741641,41.8689076 70.8449848,43.5630252 74.2492401,43.5630252 C80.0243161,43.5630252 83.0030395,39.9327731 83.0030395,35.8789916 C83.0030395,32.1882353 80.0851064,30.312605 76.8632219,28.497479 C74.9787234,27.4084034 73.5805471,26.5613445 73.5805471,24.8067227 C73.5805471,23.6571429 74.3708207,22.0840336 76.9240122,22.0840336 C78.9300912,22.0840336 81.0577508,23.2941176 81.0577508,23.2941176 C81.5440729,23.5966387 82.1519757,23.5966387 82.6382979,22.9310924 L83.4893617,21.7210084 C83.9148936,21.0554622 83.7325228,20.389916 83.3069909,20.0268908 C82.3343465,19.2403361 80.2674772,18.1512605 77.3495441,18.1512605 C70.9665653,18.1512605 69.2644377,22.2655462 69.2644377,25.2907563 C69.2644377,28.7394958 71.8784195,30.7966387 74.4924012,32.2487395 C77.106383,33.8218487 78.3829787,34.8504202 78.3829787,36.605042 C78.3829787,38.5411765 76.9240122,39.8722689 74.674772,39.8722689 C71.9392097,39.8722689 69.8115502,37.9966387 69.8115502,37.9966387 C69.325228,37.5731092 68.7173252,37.6941176 68.3525836,38.1781513 L67.3191489,39.5697479 C67.0151976,39.9932773 67.1975684,40.5983193 67.4407295,40.8403361 L67.4407295,40.8403361 Z M88.4741641,32.5512605 C88.4741641,38.5411765 92.7294833,43.5630252 97.8966565,43.5630252 C105.009119,43.5630252 110.662614,36.907563 110.662614,29.102521 C110.662614,23.1731092 106.407295,18.1512605 101.240122,18.1512605 C94.1276596,18.1512605 88.4741641,24.8067227 88.4741641,32.5512605 L88.4741641,32.5512605 Z M98.3221884,39.7512605 C94.9179331,39.7512605 92.6079027,36.302521 92.6079027,32.1882353 C92.6079027,26.6823529 96.5592705,22.205042 100.81459,22.205042 C104.158055,22.205042 106.468085,25.4722689 106.468085,29.4655462 C106.468085,35.0319328 102.577508,39.7512605 98.3221884,39.7512605 L98.3221884,39.7512605 Z M129.264438,41.8084034 C129.142857,42.4134454 129.568389,42.9579832 130.115502,42.9579832 L132.243161,42.9579832 C132.790274,42.9579832 133.398176,42.4134454 133.458967,41.8084034 L135.708207,25.6537815 C135.829787,25.6537815 138.504559,22.205042 142.212766,22.205042 C145.43465,22.205042 146.893617,24.4436975 146.224924,29.0420168 L144.462006,41.8084034 C144.340426,42.4134454 144.765957,42.9579832 145.31307,42.9579832 L147.440729,42.9579832 C147.987842,42.9579832 148.595745,42.4134454 148.656535,41.8084034 L150.419453,29.0420168 C150.601824,27.7714286 150.723404,26.6218487 150.723404,25.5932773 C151.452888,24.8067227 154.006079,22.205042 157.531915,22.205042 C160.632219,22.205042 161.969605,24.5042017 161.361702,29.0420168 L159.537994,41.8084034 C159.477204,42.4134454 159.841945,42.9579832 160.449848,42.9579832 L162.577508,42.9579832 C163.18541,42.9579832 163.732523,42.4134454 163.793313,41.8084034 L165.617021,29.0420168 C166.468085,22.7495798 164.340426,18.1512605 158.504559,18.1512605 C154.18845,18.1512605 150.054711,21.9630252 149.68997,22.205042 C148.656535,19.9663866 146.589666,18.1512605 143.367781,18.1512605 C138.930091,18.1512605 135.951368,21.3579832 135.768997,21.3579832 L135.525836,19.4823529 C135.465046,18.9983193 135.221884,18.7563025 134.735562,18.7563025 L133.519757,18.7563025 C132.729483,18.7563025 132.364742,19.3008403 132.303951,19.9058824 L129.264438,41.8084034 Z M179.963526,43.5630252 C184.462006,43.5630252 187.379939,40.4773109 187.56231,40.3563025 L187.805471,41.9294118 C187.927052,42.5344538 188.048632,42.9579832 188.595745,42.9579832 L189.81155,42.9579832 C190.480243,42.9579832 190.966565,42.4134454 191.027356,41.8084034 L194.12766,19.9058824 C194.18845,19.3008403 193.762918,18.7563025 193.215805,18.7563025 L191.148936,18.7563025 C190.541033,18.7563025 189.993921,19.3008403 189.933131,19.9058824 L187.6231,36.0605042 C187.56231,36.0605042 184.826748,39.7512605 180.99696,39.7512605 C178.018237,39.7512605 176.49848,37.2705882 177.167173,32.6722689 L178.990881,19.9058824 C179.051672,19.3008403 178.62614,18.7563025 178.079027,18.7563025 L175.890578,18.7563025 C175.343465,18.7563025 174.796353,19.3008403 174.674772,19.9058824 L172.911854,32.6117647 C172,39.0252101 173.884498,43.5630252 179.963526,43.5630252 L179.963526,43.5630252 Z M199.173252,32.6722689 C199.173252,38.9042017 203.732523,43.5630252 208.960486,43.5630252 C213.215805,43.5630252 216.43769,41.0823529 218.018237,38.4806723 C218.382979,37.8756303 218.443769,37.3310924 217.957447,36.907563 L216.680851,35.8184874 C216.133739,35.394958 215.525836,35.5159664 215.100304,36.1815126 C214.370821,37.2705882 212.364742,39.7512605 209.386018,39.7512605 C205.920973,39.7512605 203.610942,36.302521 203.610942,32.1882353 C203.610942,26.6218487 207.744681,22.205042 212.121581,22.205042 C214.18845,22.205042 215.708207,23.112605 216.680851,24.6252101 C216.984802,25.1092437 217.531915,25.3512605 218.200608,24.8672269 L219.294833,24.0806723 C219.841945,23.7176471 220.085106,23.0521008 219.781155,22.507563 C218.200608,19.7243697 215.465046,18.1512605 212.182371,18.1512605 C205.069909,18.1512605 199.173252,24.5647059 199.173252,32.6722689 L199.173252,32.6722689 Z M224.279635,41.8084034 C224.218845,42.4134454 224.583587,42.9579832 225.130699,42.9579832 L227.258359,42.9579832 C227.866261,42.9579832 228.413374,42.4134454 228.474164,41.8084034 L230.784195,25.5932773 C230.905775,25.5932773 234.066869,22.205042 237.957447,22.205042 C240.93617,22.205042 242.516717,24.4436975 241.848024,29.0420168 L240.024316,41.8084034 C239.963526,42.4134454 240.328267,42.9579832 240.87538,42.9579832 L243.06383,42.9579832 C243.610942,42.9579832 244.218845,42.4134454 244.279635,41.8084034 L246.103343,29.0420168 C247.136778,21.9630252 244.158055,18.1512605 238.930091,18.1512605 C234.796353,18.1512605 231.574468,21.3579832 231.392097,21.3579832 L234.12766,1.75462185 C234.18845,1.14957983 233.823708,0.605042017 233.276596,0.605042017 L231.088146,0.605042017 C230.541033,0.605042017 229.993921,1.14957983 229.933131,1.75462185 L224.279635,41.8084034 Z M267.835866,41.8084034 C267.714286,42.4134454 268.139818,42.9579832 268.68693,42.9579832 L270.81459,42.9579832 C271.361702,42.9579832 271.908815,42.4134454 272.030395,41.8084034 L274.674772,22.3865546 L280.87538,22.3865546 C281.483283,22.3865546 282.030395,21.8420168 282.091185,21.2369748 L282.334347,19.9058824 C282.455927,19.2403361 281.969605,18.7563025 281.361702,18.7563025 L275.161094,18.7563025 L276.3769,10.2857143 C277.045593,5.62689076 279.234043,3.7512605 281.726444,3.7512605 C283.306991,3.7512605 284.826748,4.71932773 285.43465,5.38487395 C285.860182,5.86890756 286.407295,5.86890756 286.832827,5.32436975 L287.987842,3.87226891 C288.291793,3.4487395 288.291793,2.84369748 287.987842,2.48067227 C287.136778,1.45210084 285.25228,0 282.273556,0 C277.045593,0 273.155015,3.26722689 272.182371,10.2857143 L270.966565,18.7563025 L267.197568,18.7563025 C266.589666,18.7563025 266.164134,19.2403361 266.042553,19.9058824 L265.799392,21.2369748 C265.738602,21.8420168 266.103343,22.3865546 266.711246,22.3865546 L270.480243,22.3865546 L267.835866,41.8084034 Z M284.097264,32.5512605 C284.097264,38.5411765 288.352584,43.5630252 293.519757,43.5630252 C300.632219,43.5630252 306.285714,36.907563 306.285714,29.102521 C306.285714,23.1731092 302.030395,18.1512605 296.863222,18.1512605 C289.75076,18.1512605 284.097264,24.8067227 284.097264,32.5512605 L284.097264,32.5512605 Z M293.945289,39.7512605 C290.541033,39.7512605 288.231003,36.302521 288.231003,32.1882353 C288.231003,26.6823529 292.182371,22.205042 296.43769,22.205042 C299.781155,22.205042 302.091185,25.4722689 302.091185,29.4655462 C302.091185,35.0319328 298.200608,39.7512605 293.945289,39.7512605 L293.945289,39.7512605 Z M311.392097,41.8084034 C311.270517,42.4134454 311.696049,42.9579832 312.243161,42.9579832 L314.24924,42.9579832 C314.857143,42.9579832 315.465046,42.4134454 315.586626,41.8084034 L317.835866,25.6537815 C317.957447,25.6537815 320.267477,22.205042 323.671733,22.205042 C324.887538,22.205042 325.617021,22.507563 326.042553,22.6890756 C326.589666,22.9310924 327.015198,22.9310924 327.440729,22.1445378 L328.474164,20.1478992 C329.386018,18.4537815 326.650456,18.1512605 324.887538,18.1512605 C320.510638,18.1512605 318.018237,21.3579832 317.896657,21.3579832 L317.653495,19.6033613 C317.592705,19.0588235 317.288754,18.7563025 316.863222,18.7563025 L315.647416,18.7563025 C314.917933,18.7563025 314.492401,19.3008403 314.431611,19.9058824 L311.392097,41.8084034 Z" id="so-much-for" fill="#FFFFFF"></path>
                <g id="Group" transform="translate(2.000000, 65.193277)">
                    <path d="M0.947595118,55.1142857 C2.92893037,57.0857143 9.13137114,61.7142857 20.3302225,61.7142857 C32.9935391,61.7142857 40.6604451,52.8 40.6604451,43.9714286 C40.6604451,32.3142857 29.9784637,27.0857143 23.2591529,24.4285714 C16.4536971,21.6857143 13.8693467,19.2857143 13.8693467,16.1142857 C13.8693467,13.8 16.195262,11.7428571 19.2964824,11.7428571 C24.5513281,11.7428571 30.8399139,16.4571429 31.615219,16.8857143 C32.390524,17.4857143 33.9411342,16.7142857 34.5441493,15.7714286 L38.9375449,9.17142857 C39.2821249,8.57142857 39.4544149,7.02857143 38.4206748,6.42857143 C35.8363245,4.54285714 28.9447236,0 19.9856425,0 C6.71931084,0 0.0861450108,8.57142857 0.0861450108,17.0571429 C0.0861450108,27.3428571 9.38980617,33.0857143 16.7982771,36 C22.6561378,38.3142857 25.6712132,41.0571429 25.6712132,44.6571429 C25.6712132,47.6571429 23.1730079,49.8 19.7272075,49.8 C14.0416368,49.8 7.83919598,45.2571429 7.49461594,45.0857143 C6.89160086,44.6571429 5.25484566,44.4857143 4.56568557,45.6 L0.516870065,52.7142857 C-0.172290022,53.9142857 0.0861450108,54.2571429 0.947595118,55.1142857 L0.947595118,55.1142857 Z M50.3086863,37.8857143 C50.3086863,50.9142857 61.2491027,61.7142857 74.7738693,61.7142857 C88.384781,61.7142857 99.4113424,50.9142857 99.4113424,37.8857143 L99.4113424,2.48571429 C99.4113424,1.62857143 98.6360373,0.857142857 97.7745872,0.857142857 L87.1787509,0.857142857 C86.2311558,0.857142857 85.5419957,1.62857143 85.5419957,2.48571429 L85.5419957,37.2 C85.5419957,43.2 80.9763101,48 74.7738693,48 C68.6575736,48 64.178033,43.2 64.178033,37.2 L64.178033,2.48571429 C64.178033,1.62857143 63.4888729,0.857142857 62.5412778,0.857142857 L51.9454415,0.857142857 C51.0839914,0.857142857 50.3086863,1.62857143 50.3086863,2.48571429 L50.3086863,37.8857143 Z M113.280689,59.2285714 C113.280689,60.0857143 113.969849,60.8571429 114.917444,60.8571429 L136.281407,60.8571429 C146.532663,60.8571429 155.061019,53.9142857 155.061019,44.3142857 C155.061019,36.4285714 148.083274,32.2285714 143.517588,30.3428571 C147.566403,28.2 153.510409,23.4 153.510409,16.8 C153.510409,7.8 145.154343,0.857142857 134.989232,0.857142857 L114.917444,0.857142857 C113.969849,0.857142857 113.280689,1.62857143 113.280689,2.48571429 L113.280689,59.2285714 Z M126.719311,25.2 L126.719311,13.2 L133.438622,13.2 C136.712132,13.2 139.468772,15.6 139.468772,19.0285714 C139.468772,22.4571429 136.712132,25.2 133.438622,25.2 L126.719311,25.2 Z M126.719311,48.6 L126.719311,36.3428571 L133.697057,36.3428571 C137.056712,36.3428571 140.760948,38.9142857 140.760948,42.3428571 C140.760948,45.8571429 137.918162,48.6 134.558507,48.6 L126.719311,48.6 Z M173.697057,59.2285714 C173.697057,60.0857143 174.472362,60.8571429 175.333812,60.8571429 L185.671213,60.8571429 C186.532663,60.8571429 187.307968,60.0857143 187.307968,59.2285714 L187.307968,13.4571429 L199.626705,13.4571429 C200.5743,13.4571429 201.26346,12.6857143 201.26346,11.8285714 L201.26346,2.48571429 C201.26346,1.62857143 200.5743,0.857142857 199.626705,0.857142857 L161.37832,0.857142857 C160.430725,0.857142857 159.741565,1.62857143 159.741565,2.48571429 L159.741565,11.8285714 C159.741565,12.6857143 160.430725,13.4571429 161.37832,13.4571429 L173.697057,13.4571429 L173.697057,59.2285714 Z M209.935391,59.2285714 C209.935391,60.0857143 210.624551,60.8571429 211.572146,60.8571429 L243.96267,60.8571429 C244.910266,60.8571429 245.599426,60.0857143 245.599426,59.2285714 L245.599426,49.8857143 C245.599426,49.0285714 244.910266,48.2571429 243.96267,48.2571429 L223.460158,48.2571429 L223.460158,2.48571429 C223.460158,1.62857143 222.684853,0.857142857 221.823403,0.857142857 L211.572146,0.857142857 C210.624551,0.857142857 209.935391,1.62857143 209.935391,2.48571429 L209.935391,59.2285714 Z M253.955492,59.2285714 C253.955492,60.0857143 254.644652,60.8571429 255.592247,60.8571429 L291.256281,60.8571429 C292.203877,60.8571429 292.893037,60.0857143 292.893037,59.2285714 L292.893037,49.8857143 C292.893037,49.0285714 292.203877,48.2571429 291.256281,48.2571429 L267.394113,48.2571429 L267.394113,36.6857143 L287.035176,36.6857143 C287.896626,36.6857143 288.671931,36 288.671931,35.0571429 L288.671931,25.7142857 C288.671931,24.8571429 287.896626,24.0857143 287.035176,24.0857143 L267.394113,24.0857143 L267.394113,13.4571429 L291.256281,13.4571429 C292.203877,13.4571429 292.893037,12.6857143 292.893037,11.8285714 L292.893037,2.48571429 C292.893037,1.62857143 292.203877,0.857142857 291.256281,0.857142857 L255.592247,0.857142857 C254.644652,0.857142857 253.955492,1.62857143 253.955492,2.48571429 L253.955492,59.2285714 Z M314.343144,59.2285714 C314.343144,60.0857143 315.118449,60.8571429 315.979899,60.8571429 L326.317301,60.8571429 C327.178751,60.8571429 327.954056,60.0857143 327.954056,59.2285714 L327.954056,13.4571429 L340.272793,13.4571429 C341.220388,13.4571429 341.909548,12.6857143 341.909548,11.8285714 L341.909548,2.48571429 C341.909548,1.62857143 341.220388,0.857142857 340.272793,0.857142857 L302.024408,0.857142857 C301.076813,0.857142857 300.387653,1.62857143 300.387653,2.48571429 L300.387653,11.8285714 C300.387653,12.6857143 301.076813,13.4571429 302.024408,13.4571429 L314.343144,13.4571429 L314.343144,59.2285714 Z M366.862886,59.2285714 C366.862886,60.0857143 367.552046,60.8571429 368.499641,60.8571429 L378.750897,60.8571429 C379.612347,60.8571429 380.387653,60.0857143 380.387653,59.2285714 L380.387653,31.8857143 L399.684135,3.34285714 C400.373295,2.22857143 399.684135,0.857142857 398.305815,0.857142857 L387.106963,0.857142857 C386.331658,0.857142857 385.987078,1.28571429 385.728643,1.62857143 L373.754487,19.2 L361.78033,1.62857143 C361.521895,1.28571429 361.09117,0.857142857 360.40201,0.857142857 L349.203159,0.857142857 C347.824838,0.857142857 347.135678,2.22857143 347.824838,3.34285714 L366.862886,31.9714286 L366.862886,59.2285714 Z" id="SUBTLETY" stroke="#041726" stroke-width="3.64741641" fill="#041726"></path>
                    <ellipse id="Oval-1" fill="#FFFFFF" cx="119.377282" cy="6.78151261" rx="3.7993921" ry="3.78151261"></ellipse>
                    <ellipse id="Oval-1" fill="#FFFFFF" cx="216.290419" cy="6.78151261" rx="3.7993921" ry="3.78151261"></ellipse>
                    <ellipse id="Oval-1" fill="#FFFFFF" cx="216.290419" cy="54.0672269" rx="3.7993921" ry="3.78151261"></ellipse>
                    <ellipse id="Oval-1" fill="#FFFFFF" cx="227.632845" cy="54.0672269" rx="3.7993921" ry="3.78151261"></ellipse>
                    <ellipse id="Oval-1" fill="#FFFFFF" cx="239.118847" cy="54.0672269" rx="3.7993921" ry="3.78151261"></ellipse>
                    <ellipse id="Oval-1" fill="#FFFFFF" cx="216.290419" cy="38.210084" rx="3.7993921" ry="3.78151261"></ellipse>
                    <ellipse id="Oval-1" fill="#FFFFFF" cx="216.290419" cy="22.4957983" rx="3.7993921" ry="3.78151261"></ellipse>
                    <ellipse id="Oval-1" fill="#FFFFFF" cx="260.367949" cy="6.78151261" rx="3.7993921" ry="3.78151261"></ellipse>
                    <ellipse id="Oval-1" fill="#FFFFFF" cx="260.367949" cy="54.0672269" rx="3.7993921" ry="3.78151261"></ellipse>
                    <ellipse id="Oval-1" fill="#FFFFFF" cx="273.146126" cy="54.0672269" rx="3.7993921" ry="3.78151261"></ellipse>
                    <ellipse id="Oval-1" fill="#FFFFFF" cx="285.924302" cy="54.0672269" rx="3.7993921" ry="3.78151261"></ellipse>
                    <ellipse id="Oval-1" fill="#FFFFFF" cx="273.146126" cy="6.78151261" rx="3.7993921" ry="3.78151261"></ellipse>
                    <ellipse id="Oval-1" fill="#FFFFFF" cx="279.463427" cy="29.6386555" rx="3.7993921" ry="3.78151261"></ellipse>
                    <ellipse id="Oval-1" fill="#FFFFFF" cx="285.924302" cy="6.78151261" rx="3.7993921" ry="3.78151261"></ellipse>
                    <ellipse id="Oval-1" fill="#FFFFFF" cx="260.367949" cy="38.210084" rx="3.7993921" ry="3.78151261"></ellipse>
                    <ellipse id="Oval-1" fill="#FFFFFF" cx="260.367949" cy="22.4957983" rx="3.7993921" ry="3.78151261"></ellipse>
                    <ellipse id="Oval-1" fill="#FFFFFF" cx="180.253089" cy="6.78151261" rx="3.7993921" ry="3.78151261"></ellipse>
                    <ellipse id="Oval-1" fill="#FFFFFF" cx="194.323441" cy="6.78151261" rx="3.7993921" ry="3.78151261"></ellipse>
                    <ellipse id="Oval-1" fill="#FFFFFF" cx="166.039162" cy="6.78151261" rx="3.7993921" ry="3.78151261"></ellipse>
                    <ellipse id="Oval-1" fill="#FFFFFF" cx="180.109514" cy="54.0672269" rx="3.7993921" ry="3.78151261"></ellipse>
                    <ellipse id="Oval-1" fill="#FFFFFF" cx="179.965939" cy="37.9243697" rx="3.7993921" ry="3.78151261"></ellipse>
                    <ellipse id="Oval-1" fill="#FFFFFF" cx="179.965939" cy="22.3529412" rx="3.7993921" ry="3.78151261"></ellipse>
                    <ellipse id="Oval-1" fill="#FFFFFF" cx="321.243757" cy="6.78151261" rx="3.7993921" ry="3.78151261"></ellipse>
                    <ellipse id="Oval-1" fill="#FFFFFF" cx="334.165508" cy="6.78151261" rx="3.7993921" ry="3.78151261"></ellipse>
                    <ellipse id="Oval-1" fill="#FFFFFF" cx="307.31698" cy="6.78151261" rx="3.7993921" ry="3.78151261"></ellipse>
                    <ellipse id="Oval-1" fill="#FFFFFF" cx="321.243757" cy="52.9243697" rx="3.7993921" ry="3.78151261"></ellipse>
                    <ellipse id="Oval-1" fill="#FFFFFF" cx="321.243757" cy="37.9243697" rx="3.7993921" ry="3.78151261"></ellipse>
                    <ellipse id="Oval-1" fill="#FFFFFF" cx="321.243757" cy="22.3529412" rx="3.7993921" ry="3.78151261"></ellipse>
                    <ellipse id="Oval-1" fill="#FFFFFF" cx="389.298315" cy="6.78151261" rx="3.7993921" ry="3.78151261"></ellipse>
                    <ellipse id="Oval-1" fill="#FFFFFF" cx="373.505063" cy="52.9243697" rx="3.7993921" ry="3.78151261"></ellipse>
                    <ellipse id="Oval-1" fill="#FFFFFF" cx="373.505063" cy="37.9243697" rx="3.7993921" ry="3.78151261"></ellipse>
                    <ellipse id="Oval-1" fill="#FFFFFF" cx="379.248064" cy="22.3529412" rx="3.7993921" ry="3.78151261"></ellipse>
                    <ellipse id="Oval-1" fill="#FFFFFF" cx="357.424661" cy="6.78151261" rx="3.7993921" ry="3.78151261"></ellipse>
                    <ellipse id="Oval-1" fill="#FFFFFF" cx="367.474913" cy="22.3529412" rx="3.7993921" ry="3.78151261"></ellipse>
                    <ellipse id="Oval-1" fill="#FFFFFF" cx="92.0980281" cy="6.78151261" rx="3.7993921" ry="3.78151261"></ellipse>
                    <ellipse id="Oval-1" fill="#FFFFFF" cx="83.052802" cy="51.210084" rx="3.7993921" ry="3.78151261"></ellipse>
                    <ellipse id="Oval-1" fill="#FFFFFF" cx="92.0980281" cy="37.9243697" rx="3.7993921" ry="3.78151261"></ellipse>
                    <ellipse id="Oval-1" fill="#FFFFFF" cx="92.0980281" cy="22.3529412" rx="3.7993921" ry="3.78151261"></ellipse>
                    <ellipse id="Oval-1" fill="#FFFFFF" cx="56.6349987" cy="6.78151261" rx="3.7993921" ry="3.78151261"></ellipse>
                    <ellipse id="Oval-1" fill="#FFFFFF" cx="65.5366498" cy="51.3529412" rx="3.7993921" ry="3.78151261"></ellipse>
                    <ellipse id="Oval-1" fill="#FFFFFF" cx="56.6349987" cy="37.9243697" rx="3.7993921" ry="3.78151261"></ellipse>
                    <ellipse id="Oval-1" fill="#FFFFFF" cx="56.6349987" cy="22.3529412" rx="3.7993921" ry="3.78151261"></ellipse>
                    <ellipse id="Oval-1" fill="#FFFFFF" cx="26.3406699" cy="6.78151261" rx="3.7993921" ry="3.78151261"></ellipse>
                    <ellipse id="Oval-1" fill="#FFFFFF" cx="13.4189183" cy="54.0672269" rx="3.7993921" ry="3.78151261"></ellipse>
                    <ellipse id="Oval-1" fill="#FFFFFF" cx="27.7764201" cy="52.0672269" rx="3.7993921" ry="3.78151261"></ellipse>
                    <ellipse id="Oval-1" fill="#FFFFFF" cx="31.0786455" cy="38.210084" rx="3.7993921" ry="3.78151261"></ellipse>
                    <ellipse id="Oval-1" fill="#FFFFFF" cx="19.8797941" cy="29.9243697" rx="3.7993921" ry="3.78151261"></ellipse>
                    <ellipse id="Oval-1" fill="#FFFFFF" cx="8.68094271" cy="22.4957983" rx="3.7993921" ry="3.78151261"></ellipse>
                    <ellipse id="Oval-1" fill="#FFFFFF" cx="10.4038429" cy="8.63865546" rx="3.7993921" ry="3.78151261"></ellipse>
                    <ellipse id="Oval-1" fill="#FFFFFF" cx="119.377282" cy="54.0672269" rx="3.7993921" ry="3.78151261"></ellipse>
                    <ellipse id="Oval-1" fill="#FFFFFF" cx="133.304058" cy="6.78151261" rx="3.7993921" ry="3.78151261"></ellipse>
                    <ellipse id="Oval-1" fill="#FFFFFF" cx="133.304058" cy="54.0672269" rx="3.7993921" ry="3.78151261"></ellipse>
                    <ellipse id="Oval-1" fill="#FFFFFF" cx="147.08726" cy="46.0672269" rx="3.7993921" ry="3.78151261"></ellipse>
                    <ellipse id="Oval-1" fill="#FFFFFF" cx="119.377282" cy="38.210084" rx="3.7993921" ry="3.78151261"></ellipse>
                    <ellipse id="Oval-1" fill="#FFFFFF" cx="119.377282" cy="22.4957983" rx="3.7993921" ry="3.78151261"></ellipse>
                    <ellipse id="Oval-1" fill="#FFFFFF" cx="136.175559" cy="30.0672269" rx="3.7993921" ry="3.78151261"></ellipse>
                    <ellipse id="Oval-1" fill="#FFFFFF" cx="145.65151" cy="14.6386555" rx="3.7993921" ry="3.78151261"></ellipse>
                </g>
                <rect id="Rectangle-1" stroke="#979797" stroke-width="0.5" fill="#D44147" x="66.43769" y="148.386555" width="262.158055" height="13.6134454" rx="2.27963526"></rect>
            </g>
        </g>
    </g>
</svg>