<?xml version="1.0" encoding="UTF-8" standalone="no"?>
<svg width="400px" height="164px" viewBox="0 0 400 164" version="1.1" xmlns="http://www.w3.org/2000/svg" xmlns:xlink="http://www.w3.org/1999/xlink">
    <!-- Generator: Sketch 3.6.1 (26313) - http://www.bohemiancoding.com/sketch -->
    <title>Group Copy 2</title>
    <desc>Created with Sketch.</desc>
    <defs></defs>
    <g id="Page-1" stroke="none" stroke-width="1" fill="none" fill-rule="evenodd">
        <g id="Artboard-1-Copy-13" transform="translate(-200.000000, -1017.000000)">
            <g id="Group" transform="translate(200.000000, 1017.000000)">
                <path d="M4,45 L396,45 C398.002207,45 400,47.0000519 400,49 L400,160 C400,162.000649 398.001744,164 396,164 L4,164 C1.99779261,164 0,161.999948 0,160 L0,49 C0,46.9993507 1.99825594,45 4,45 Z M12,57 L388,57 L388,152 L12,152 L12,57 Z" id="Combined-Shape" fill="#D44147"></path>
                <path d="M68.5538462,42.1538462 C69.6,43.2 72,44.9230769 75.4461538,44.9230769 C81.2923077,44.9230769 84.3076923,41.2307692 84.3076923,37.1076923 C84.3076923,33.3538462 81.3538462,31.4461538 78.0923077,29.6 C76.1846154,28.4923077 74.7692308,27.6307692 74.7692308,25.8461538 C74.7692308,24.6769231 75.5692308,23.0769231 78.1538462,23.0769231 C80.1846154,23.0769231 82.3384615,24.3076923 82.3384615,24.3076923 C82.8307692,24.6153846 83.4461538,24.6153846 83.9384615,23.9384615 L84.8,22.7076923 C85.2307692,22.0307692 85.0461538,21.3538462 84.6153846,20.9846154 C83.6307692,20.1846154 81.5384615,19.0769231 78.5846154,19.0769231 C72.1230769,19.0769231 70.4,23.2615385 70.4,26.3384615 C70.4,29.8461538 73.0461538,31.9384615 75.6923077,33.4153846 C78.3384615,35.0153846 79.6307692,36.0615385 79.6307692,37.8461538 C79.6307692,39.8153846 78.1538462,41.1692308 75.8769231,41.1692308 C73.1076923,41.1692308 70.9538462,39.2615385 70.9538462,39.2615385 C70.4615385,38.8307692 69.8461538,38.9538462 69.4769231,39.4461538 L68.4307692,40.8615385 C68.1230769,41.2923077 68.3076923,41.9076923 68.5538462,42.1538462 L68.5538462,42.1538462 Z M89.8461538,33.7230769 C89.8461538,39.8153846 94.1538462,44.9230769 99.3846154,44.9230769 C106.584615,44.9230769 112.307692,38.1538462 112.307692,30.2153846 C112.307692,24.1846154 108,19.0769231 102.769231,19.0769231 C95.5692308,19.0769231 89.8461538,25.8461538 89.8461538,33.7230769 L89.8461538,33.7230769 Z M99.8153846,41.0461538 C96.3692308,41.0461538 94.0307692,37.5384615 94.0307692,33.3538462 C94.0307692,27.7538462 98.0307692,23.2 102.338462,23.2 C105.723077,23.2 108.061538,26.5230769 108.061538,30.5846154 C108.061538,36.2461538 104.123077,41.0461538 99.8153846,41.0461538 L99.8153846,41.0461538 Z M131.138462,43.1384615 C131.015385,43.7538462 131.446154,44.3076923 132,44.3076923 L134.153846,44.3076923 C134.707692,44.3076923 135.323077,43.7538462 135.384615,43.1384615 L137.661538,26.7076923 C137.784615,26.7076923 140.492308,23.2 144.246154,23.2 C147.507692,23.2 148.984615,25.4769231 148.307692,30.1538462 L146.523077,43.1384615 C146.4,43.7538462 146.830769,44.3076923 147.384615,44.3076923 L149.538462,44.3076923 C150.092308,44.3076923 150.707692,43.7538462 150.769231,43.1384615 L152.553846,30.1538462 C152.738462,28.8615385 152.861538,27.6923077 152.861538,26.6461538 C153.6,25.8461538 156.184615,23.2 159.753846,23.2 C162.892308,23.2 164.246154,25.5384615 163.630769,30.1538462 L161.784615,43.1384615 C161.723077,43.7538462 162.092308,44.3076923 162.707692,44.3076923 L164.861538,44.3076923 C165.476923,44.3076923 166.030769,43.7538462 166.092308,43.1384615 L167.938462,30.1538462 C168.8,23.7538462 166.646154,19.0769231 160.738462,19.0769231 C156.369231,19.0769231 152.184615,22.9538462 151.815385,23.2 C150.769231,20.9230769 148.676923,19.0769231 145.415385,19.0769231 C140.923077,19.0769231 137.907692,22.3384615 137.723077,22.3384615 L137.476923,20.4307692 C137.415385,19.9384615 137.169231,19.6923077 136.676923,19.6923077 L135.446154,19.6923077 C134.646154,19.6923077 134.276923,20.2461538 134.215385,20.8615385 L131.138462,43.1384615 Z M182.461538,44.9230769 C187.015385,44.9230769 189.969231,41.7846154 190.153846,41.6615385 L190.4,43.2615385 C190.523077,43.8769231 190.646154,44.3076923 191.2,44.3076923 L192.430769,44.3076923 C193.107692,44.3076923 193.6,43.7538462 193.661538,43.1384615 L196.8,20.8615385 C196.861538,20.2461538 196.430769,19.6923077 195.876923,19.6923077 L193.784615,19.6923077 C193.169231,19.6923077 192.615385,20.2461538 192.553846,20.8615385 L190.215385,37.2923077 C190.153846,37.2923077 187.384615,41.0461538 183.507692,41.0461538 C180.492308,41.0461538 178.953846,38.5230769 179.630769,33.8461538 L181.476923,20.8615385 C181.538462,20.2461538 181.107692,19.6923077 180.553846,19.6923077 L178.338462,19.6923077 C177.784615,19.6923077 177.230769,20.2461538 177.107692,20.8615385 L175.323077,33.7846154 C174.4,40.3076923 176.307692,44.9230769 182.461538,44.9230769 L182.461538,44.9230769 Z M201.907692,33.8461538 C201.907692,40.1846154 206.523077,44.9230769 211.815385,44.9230769 C216.123077,44.9230769 219.384615,42.4 220.984615,39.7538462 C221.353846,39.1384615 221.415385,38.5846154 220.923077,38.1538462 L219.630769,37.0461538 C219.076923,36.6153846 218.461538,36.7384615 218.030769,37.4153846 C217.292308,38.5230769 215.261538,41.0461538 212.246154,41.0461538 C208.738462,41.0461538 206.4,37.5384615 206.4,33.3538462 C206.4,27.6923077 210.584615,23.2 215.015385,23.2 C217.107692,23.2 218.646154,24.1230769 219.630769,25.6615385 C219.938462,26.1538462 220.492308,26.4 221.169231,25.9076923 L222.276923,25.1076923 C222.830769,24.7384615 223.076923,24.0615385 222.769231,23.5076923 C221.169231,20.6769231 218.4,19.0769231 215.076923,19.0769231 C207.876923,19.0769231 201.907692,25.6 201.907692,33.8461538 L201.907692,33.8461538 Z M227.323077,43.1384615 C227.261538,43.7538462 227.630769,44.3076923 228.184615,44.3076923 L230.338462,44.3076923 C230.953846,44.3076923 231.507692,43.7538462 231.569231,43.1384615 L233.907692,26.6461538 C234.030769,26.6461538 237.230769,23.2 241.169231,23.2 C244.184615,23.2 245.784615,25.4769231 245.107692,30.1538462 L243.261538,43.1384615 C243.2,43.7538462 243.569231,44.3076923 244.123077,44.3076923 L246.338462,44.3076923 C246.892308,44.3076923 247.507692,43.7538462 247.569231,43.1384615 L249.415385,30.1538462 C250.461538,22.9538462 247.446154,19.0769231 242.153846,19.0769231 C237.969231,19.0769231 234.707692,22.3384615 234.523077,22.3384615 L237.292308,2.4 C237.353846,1.78461538 236.984615,1.23076923 236.430769,1.23076923 L234.215385,1.23076923 C233.661538,1.23076923 233.107692,1.78461538 233.046154,2.4 L227.323077,43.1384615 Z M268.8,61.6 C268.676923,62.2153846 269.107692,62.7692308 269.661538,62.7692308 L271.815385,62.7692308 C272.369231,62.7692308 272.923077,62.2153846 273.046154,61.6 L278.338462,23.3846154 L284.615385,23.3846154 C285.230769,23.3846154 285.784615,22.8307692 285.846154,22.2153846 L286.092308,20.8615385 C286.215385,20.1846154 285.723077,19.6923077 285.107692,19.6923077 L278.830769,19.6923077 L280.061538,11.0769231 C280.738462,6.33846154 282.953846,4.43076923 285.476923,4.43076923 C287.076923,4.43076923 288.615385,5.41538462 289.230769,6.09230769 C289.661538,6.58461538 290.215385,6.58461538 290.646154,6.03076923 L291.815385,4.55384615 C292.123077,4.12307692 292.123077,3.50769231 291.815385,3.13846154 C290.953846,2.09230769 289.046154,0.615384615 286.030769,0.615384615 C280.738462,0.615384615 276.8,3.93846154 275.815385,11.0769231 L274.584615,19.6923077 L270.769231,19.6923077 C270.153846,19.6923077 269.723077,20.1846154 269.6,20.8615385 L269.353846,22.2153846 C269.292308,22.8307692 269.661538,23.3846154 270.276923,23.3846154 L274.092308,23.3846154 L268.8,61.6 Z M287.876923,33.7230769 C287.876923,39.8153846 292.184615,44.9230769 297.415385,44.9230769 C304.615385,44.9230769 310.338462,38.1538462 310.338462,30.2153846 C310.338462,24.1846154 306.030769,19.0769231 300.8,19.0769231 C293.6,19.0769231 287.876923,25.8461538 287.876923,33.7230769 L287.876923,33.7230769 Z M297.846154,41.0461538 C294.4,41.0461538 292.061538,37.5384615 292.061538,33.3538462 C292.061538,27.7538462 296.061538,23.2 300.369231,23.2 C303.753846,23.2 306.092308,26.5230769 306.092308,30.5846154 C306.092308,36.2461538 302.153846,41.0461538 297.846154,41.0461538 L297.846154,41.0461538 Z M315.507692,43.1384615 C315.384615,43.7538462 315.815385,44.3076923 316.369231,44.3076923 L318.4,44.3076923 C319.015385,44.3076923 319.630769,43.7538462 319.753846,43.1384615 L322.030769,26.7076923 C322.153846,26.7076923 324.492308,23.2 327.938462,23.2 C329.169231,23.2 329.907692,23.5076923 330.338462,23.6923077 C330.892308,23.9384615 331.323077,23.9384615 331.753846,23.1384615 L332.8,21.1076923 C333.723077,19.3846154 330.953846,19.0769231 329.169231,19.0769231 C324.738462,19.0769231 322.215385,22.3384615 322.092308,22.3384615 L321.846154,20.5538462 C321.784615,20 321.476923,19.6923077 321.046154,19.6923077 L319.815385,19.6923077 C319.076923,19.6923077 318.646154,20.2461538 318.584615,20.8615385 L315.507692,43.1384615 Z" id="so-much-for" fill="#EFF8F7"></path>
                <path d="M33.4584615,125.667692 C35.1569231,127.366154 40.4738462,131.353846 50.0738462,131.353846 C60.9292308,131.353846 67.5015385,123.673846 67.5015385,116.067692 C67.5015385,106.024615 58.3446154,101.52 52.5846154,99.2307692 C46.7507692,96.8676923 44.5353846,94.8 44.5353846,92.0676923 C44.5353846,90.0738462 46.5292308,88.3015385 49.1876923,88.3015385 C53.6923077,88.3015385 59.0830769,92.3630769 59.7476923,92.7323077 C60.4123077,93.2492308 61.7415385,92.5846154 62.2584615,91.7723077 L66.0246154,86.0861538 C66.32,85.5692308 66.4676923,84.24 65.5815385,83.7230769 C63.3661538,82.0984615 57.4584615,78.1846154 49.7784615,78.1846154 C38.4061538,78.1846154 32.72,85.5692308 32.72,92.88 C32.72,101.741538 40.6953846,106.689231 47.0461538,109.2 C52.0676923,111.193846 54.6523077,113.556923 54.6523077,116.658462 C54.6523077,119.243077 52.5107692,121.089231 49.5569231,121.089231 C44.6830769,121.089231 39.3661538,117.175385 39.0707692,117.027692 C38.5538462,116.658462 37.1507692,116.510769 36.56,117.470769 L33.0892308,123.6 C32.4984615,124.633846 32.72,124.929231 33.4584615,125.667692 L33.4584615,125.667692 Z M75.7723077,110.824615 C75.7723077,122.049231 85.1507692,131.353846 96.7446154,131.353846 C108.412308,131.353846 117.864615,122.049231 117.864615,110.824615 L117.864615,80.3261538 C117.864615,79.5876923 117.2,78.9230769 116.461538,78.9230769 L107.378462,78.9230769 C106.566154,78.9230769 105.975385,79.5876923 105.975385,80.3261538 L105.975385,110.233846 C105.975385,115.403077 102.061538,119.538462 96.7446154,119.538462 C91.5015385,119.538462 87.6615385,115.403077 87.6615385,110.233846 L87.6615385,80.3261538 C87.6615385,79.5876923 87.0707692,78.9230769 86.2584615,78.9230769 L77.1753846,78.9230769 C76.4369231,78.9230769 75.7723077,79.5876923 75.7723077,80.3261538 L75.7723077,110.824615 Z M129.753846,129.212308 C129.753846,129.950769 130.344615,130.615385 131.156923,130.615385 L149.470769,130.615385 C158.258462,130.615385 165.569231,124.633846 165.569231,116.363077 C165.569231,109.569231 159.587692,105.950769 155.673846,104.326154 C159.144615,102.48 164.24,98.3446154 164.24,92.6584615 C164.24,84.9046154 157.076923,78.9230769 148.363077,78.9230769 L131.156923,78.9230769 C130.344615,78.9230769 129.753846,79.5876923 129.753846,80.3261538 L129.753846,129.212308 Z M141.273846,99.8953846 L141.273846,89.5569231 L147.033846,89.5569231 C149.84,89.5569231 152.203077,91.6246154 152.203077,94.5784615 C152.203077,97.5323077 149.84,99.8953846 147.033846,99.8953846 L141.273846,99.8953846 Z M141.273846,120.055385 L141.273846,109.495385 L147.255385,109.495385 C150.135385,109.495385 153.310769,111.710769 153.310769,114.664615 C153.310769,117.692308 150.873846,120.055385 147.993846,120.055385 L141.273846,120.055385 Z M181.593846,129.212308 C181.593846,129.950769 182.258462,130.615385 182.996923,130.615385 L191.858462,130.615385 C192.596923,130.615385 193.261538,129.950769 193.261538,129.212308 L193.261538,89.7784615 L203.821538,89.7784615 C204.633846,89.7784615 205.224615,89.1138462 205.224615,88.3753846 L205.224615,80.3261538 C205.224615,79.5876923 204.633846,78.9230769 203.821538,78.9230769 L171.033846,78.9230769 C170.221538,78.9230769 169.630769,79.5876923 169.630769,80.3261538 L169.630769,88.3753846 C169.630769,89.1138462 170.221538,89.7784615 171.033846,89.7784615 L181.593846,89.7784615 L181.593846,129.212308 Z M212.609231,129.212308 C212.609231,129.950769 213.2,130.615385 214.012308,130.615385 L241.778462,130.615385 C242.590769,130.615385 243.181538,129.950769 243.181538,129.212308 L243.181538,121.163077 C243.181538,120.424615 242.590769,119.76 241.778462,119.76 L224.203077,119.76 L224.203077,80.3261538 C224.203077,79.5876923 223.538462,78.9230769 222.8,78.9230769 L214.012308,78.9230769 C213.2,78.9230769 212.609231,79.5876923 212.609231,80.3261538 L212.609231,129.212308 Z M250.344615,129.212308 C250.344615,129.950769 250.935385,130.615385 251.747692,130.615385 L282.32,130.615385 C283.132308,130.615385 283.723077,129.950769 283.723077,129.212308 L283.723077,121.163077 C283.723077,120.424615 283.132308,119.76 282.32,119.76 L261.864615,119.76 L261.864615,109.790769 L278.701538,109.790769 C279.44,109.790769 280.104615,109.2 280.104615,108.387692 L280.104615,100.338462 C280.104615,99.6 279.44,98.9353846 278.701538,98.9353846 L261.864615,98.9353846 L261.864615,89.7784615 L282.32,89.7784615 C283.132308,89.7784615 283.723077,89.1138462 283.723077,88.3753846 L283.723077,80.3261538 C283.723077,79.5876923 283.132308,78.9230769 282.32,78.9230769 L251.747692,78.9230769 C250.935385,78.9230769 250.344615,79.5876923 250.344615,80.3261538 L250.344615,129.212308 Z M300.264615,129.212308 C300.264615,129.950769 300.929231,130.615385 301.667692,130.615385 L310.529231,130.615385 C311.267692,130.615385 311.932308,129.950769 311.932308,129.212308 L311.932308,89.7784615 L322.492308,89.7784615 C323.304615,89.7784615 323.895385,89.1138462 323.895385,88.3753846 L323.895385,80.3261538 C323.895385,79.5876923 323.304615,78.9230769 322.492308,78.9230769 L289.704615,78.9230769 C288.892308,78.9230769 288.301538,79.5876923 288.301538,80.3261538 L288.301538,88.3753846 C288.301538,89.1138462 288.892308,89.7784615 289.704615,89.7784615 L300.264615,89.7784615 L300.264615,129.212308 Z M343.316923,129.212308 C343.316923,129.950769 343.907692,130.615385 344.72,130.615385 L353.507692,130.615385 C354.246154,130.615385 354.910769,129.950769 354.910769,129.212308 L354.910769,105.655385 L371.452308,81.0646154 C372.043077,80.1046154 371.452308,78.9230769 370.270769,78.9230769 L360.670769,78.9230769 C360.006154,78.9230769 359.710769,79.2923077 359.489231,79.5876923 L349.224615,94.7261538 L338.96,79.5876923 C338.738462,79.2923077 338.369231,78.9230769 337.778462,78.9230769 L328.178462,78.9230769 C326.996923,78.9230769 326.406154,80.1046154 326.996923,81.0646154 L343.316923,105.729231 L343.316923,129.212308 Z" id="SUBTLETY" fill="#041726"></path>
            </g>
        </g>
    </g>
</svg>