<?xml version="1.0" standalone="no"?>
<!DOCTYPE svg PUBLIC "-//W3C//DTD SVG 20010904//EN"
 "http://www.w3.org/TR/2001/REC-SVG-20010904/DTD/svg10.dtd">
<svg version="1.0" xmlns="http://www.w3.org/2000/svg"
 width="260.000000pt" height="260.000000pt" viewBox="0 0 260.000000 260.000000"
 preserveAspectRatio="xMidYMid meet">
<metadata>
Created by potrace 1.11, written by Peter Selinger 2001-2013
</metadata>
<g transform="translate(0.000000,260.000000) scale(0.100000,-0.100000)"
fill="#000000" stroke="none">
<path d="M54 2589 c-11 -6 -28 -23 -37 -39 -16 -26 -17 -126 -17 -1250 0
-1122 1 -1224 17 -1250 9 -16 27 -33 40 -39 17 -8 388 -11 1244 -11 1121 0
1223 1 1249 17 16 9 33 27 39 40 15 34 15 2452 0 2486 -6 13 -23 31 -39 40
-26 16 -127 17 -1252 16 -801 0 -1230 -4 -1244 -10z m2282 -1289 l0 -1036
-1035 1 -1036 0 -2 1036 -2 1035 1037 0 1038 0 0 -1036z"/>
<path d="M1150 1934 c-84 -21 -156 -62 -204 -115 -54 -60 -75 -104 -89 -186
-9 -54 -8 -75 6 -129 34 -129 119 -214 307 -306 185 -90 220 -123 220 -205 -1
-120 -158 -138 -329 -38 -89 52 -99 49 -152 -42 -67 -118 -66 -113 -21 -153
110 -98 330 -150 493 -115 281 58 416 343 268 564 -43 64 -127 134 -206 171
-249 117 -286 142 -296 210 -11 64 53 115 132 105 64 -8 120 -32 225 -96 42
-25 62 -11 124 84 67 102 65 112 -28 168 -139 82 -319 115 -450 83z"/>
</g>
</svg>
